<?xml version="1.0" encoding="UTF-8"?>
<svg version="1.1" xmlns="http://www.w3.org/2000/svg" width="1024" height="1024">
<path d="M0 0 C337.92 0 675.84 0 1024 0 C1024 337.92 1024 675.84 1024 1024 C686.08 1024 348.16 1024 0 1024 C0 686.08 0 348.16 0 0 Z " fill="#F9F9F9" transform="translate(0,0)"/>
<path d="M0 0 C337.92 0 675.84 0 1024 0 C1024 337.92 1024 675.84 1024 1024 C686.08 1024 348.16 1024 0 1024 C0 686.08 0 348.16 0 0 Z M466 97 C465.03078613 97.10715332 464.06157227 97.21430664 463.06298828 97.32470703 C419.55223229 102.14520201 377.62827145 112.37359321 337.76074219 130.72900391 C335.91625543 131.57817247 334.06789402 132.41897363 332.21582031 133.25146484 C308.79631375 143.78575317 286.83309823 157.0084012 266 172 C265.43861328 172.40234863 264.87722656 172.80469727 264.29882812 173.21923828 C251.79366565 182.23903556 239.85369424 192.07074337 228.58984375 202.59375 C226.45343107 204.57871261 224.28557485 206.48931489 222.0625 208.375 C214.06328978 215.319921 206.49408997 222.99691574 199.6484375 231.078125 C198.47417569 232.44716957 197.26711245 233.7883651 196.0390625 235.109375 C189.35892674 242.29594705 183.47219884 250.01942877 177.59912109 257.86572266 C176.12205086 259.83710403 174.63428674 261.79992016 173.14453125 263.76171875 C165.83297213 273.46900808 159.29102615 283.60666233 153 294 C152.51418457 294.80115234 152.02836914 295.60230469 151.52783203 296.42773438 C118.78735697 350.90403435 99.635333 412.65886918 95 476 C94.91322998 477.15218018 94.91322998 477.15218018 94.82470703 478.32763672 C89.68376544 549.9804636 102.91028257 622.15255602 134 687 C134.44037598 687.92844727 134.88075195 688.85689453 135.33447266 689.81347656 C153.1933258 727.27047985 177.08985002 760.44279752 205 791 C206.30130859 792.45792969 206.30130859 792.45792969 207.62890625 793.9453125 C224.806111 813.05856426 244.37901632 829.73475054 265 845 C265.67369629 845.49999512 266.34739258 845.99999023 267.04150391 846.51513672 C336.26580516 897.53756824 420.71430707 925.30384191 506.59570312 925.13037109 C509.73051848 925.12503317 512.8651891 925.13033521 516 925.13671875 C534.42862513 925.14525342 552.54859022 924.38706635 570.8125 921.875 C571.60071136 921.76806824 572.38892273 921.66113647 573.20101929 921.55096436 C589.07097277 919.37114911 604.51160692 916.1230676 620 912 C621.05960938 911.71898437 622.11921875 911.43796875 623.2109375 911.1484375 C673.68682721 897.54410451 721.32481583 874.59740392 763 843 C763.64678711 842.51015625 764.29357422 842.0203125 764.95996094 841.515625 C772.62861467 835.6728412 779.89893002 829.52598332 787 823 C788.28782181 821.87060071 789.57935422 820.745415 790.875 819.625 C801.87592191 810.02137261 812.73861073 800.15522708 822.23828125 789.0390625 C824.19605739 786.7730777 826.22228948 784.57856506 828.25 782.375 C833.83677502 776.17377426 838.92256779 769.61821727 844 763 C844.48903809 762.36787598 844.97807617 761.73575195 845.48193359 761.08447266 C869.1092291 730.4975567 888.03753188 695.99737561 902 660 C902.52883789 658.65856934 902.52883789 658.65856934 903.06835938 657.29003906 C916.11900181 623.97784576 923.8884319 588.48299158 928 553 C928.08720306 552.25277679 928.17440613 551.50555359 928.26425171 550.73568726 C929.86278634 536.70223031 930.36416327 522.80544464 930.3125 508.6875 C930.31067719 507.64473907 930.30885437 506.60197815 930.30697632 505.52761841 C930.25428542 487.51299546 929.39909292 469.86804737 927 452 C926.83371094 450.73559082 926.66742187 449.47118164 926.49609375 448.16845703 C920.28956078 402.46423783 906.30178677 358.78559432 884.97265625 317.87597656 C883.96531882 315.9331099 882.9821249 313.97915532 882 312.0234375 C870.3442229 289.095691 855.53158536 267.67166302 839 248 C837.56214542 246.20861788 836.12465442 244.41694388 834.6875 242.625 C826.20969298 232.31610201 816.92236327 222.81548208 807.52664185 213.35140991 C806.48366364 212.30037999 805.44216924 211.24787512 804.40231323 210.1937561 C797.60536857 203.31356504 790.57256119 197.03591011 783 191 C781.89820565 190.06518062 780.80186152 189.12383636 779.71484375 188.171875 C729.96581371 144.79016104 666.7913283 118.32124667 603 104 C601.85281494 103.73856201 600.70562988 103.47712402 599.52368164 103.20776367 C556.5285847 93.65029879 509.7204211 91.83282665 466 97 Z " fill="#F9F9F9" transform="translate(0,0)"/>
<path d="M0 0 C3.30174712 2.91055373 6.50925835 5.90986384 9.66943359 8.97314453 C11.1941286 10.45088069 12.73350918 11.91218974 14.2734375 13.37402344 C29.29983345 27.82451153 41.34357407 45.1307856 51.19140625 63.44824219 C51.68423096 64.35799805 51.68423096 64.35799805 52.18701172 65.28613281 C78.77616807 114.85693674 84.99070142 175.34794577 69.17700195 229.36108398 C55.65312731 272.82389775 31.20846336 312.13138349 -4.80859375 340.44824219 C-5.71222656 341.20363281 -6.61585938 341.95902344 -7.546875 342.73730469 C-52.3792101 379.19697853 -112.4608695 392.31334072 -169.125 386.94824219 C-174.07203457 386.35454407 -178.93456288 385.47350417 -183.80859375 384.44824219 C-184.64100586 384.28195312 -185.47341797 384.11566406 -186.33105469 383.94433594 C-208.69992524 379.39815976 -230.82779979 371.75180702 -250.68231201 360.37454224 C-257.43605189 357.4323218 -266.67219716 361.74486807 -273.2109375 363.87011719 C-274.82579796 364.38291229 -274.82579796 364.38291229 -276.47328186 364.90606689 C-279.90013356 365.99555518 -283.32325864 367.09620674 -286.74609375 368.19824219 C-312.80664064 376.54358882 -312.80664064 376.54358882 -322.875 379.46386719 C-323.55787582 379.67066101 -324.24075165 379.87745483 -324.94432068 380.09051514 C-331.26643938 381.87377883 -337.31269935 382.71887933 -343.24609375 379.69824219 C-346.30982114 377.00814009 -347.61949071 375.1358108 -348.0758667 371.06307983 C-348.03785978 364.08638483 -347.14916623 357.56577714 -345.76171875 350.73730469 C-345.549245 349.64847992 -345.33677124 348.55965515 -345.11785889 347.43783569 C-344.44109909 343.98098618 -343.75024506 340.52713958 -343.05859375 337.07324219 C-342.60971447 334.79608798 -342.16179066 332.51874521 -341.71484375 330.24121094 C-338.05790829 311.64201979 -338.05790829 311.64201979 -336.55273438 304.34960938 C-336.17432094 302.47366472 -335.7960573 300.59768984 -335.41796875 298.72167969 C-335.2390509 297.88134186 -335.06013306 297.04100403 -334.87579346 296.17520142 C-333.38714385 288.6895327 -334.06266021 283.18293673 -337.7578125 276.38574219 C-338.655 274.70774536 -338.655 274.70774536 -339.5703125 272.99584961 C-339.88532715 272.41644623 -340.2003418 271.83704285 -340.52490234 271.24008179 C-358.00644335 238.98679243 -366.27940523 204.48384309 -366.12109375 167.82324219 C-366.11927094 166.94494751 -366.11744812 166.06665283 -366.11557007 165.16174316 C-366.06872559 151.73583977 -365.58711075 138.62790037 -362.80859375 125.44824219 C-362.6369873 124.62098633 -362.46538086 123.79373047 -362.28857422 122.94140625 C-355.21986483 89.9793637 -340.82671787 58.8274081 -319.80859375 32.44824219 C-319.02484375 31.45953125 -318.24109375 30.47082031 -317.43359375 29.45214844 C-305.61597022 14.87432152 -292.11786792 1.33456564 -276.80859375 -9.55175781 C-276.1552002 -10.02242676 -275.50180664 -10.4930957 -274.82861328 -10.97802734 C-198.77925133 -65.26837523 -90.53421658 -66.38326938 0 0 Z " fill="#8F4813" transform="translate(656.80859375,335.5517578125)"/>
<path d="M0 0 C3.43700556 0.0183902 6.87374099 0.02050762 10.31079102 0.02026367 C28.89178081 0.04786234 47.0764479 0.84512785 65.48461914 3.39331055 C66.27921539 3.50185364 67.07381165 3.61039673 67.89248657 3.722229 C82.97967718 5.80043517 97.80903289 8.58248555 112.60961914 12.20581055 C113.69742676 12.47119629 114.78523437 12.73658203 115.90600586 13.01000977 C193.05466466 32.14562224 260.04269484 72.72791074 315.98461914 128.45581055 C317.25136475 129.71554688 317.25136475 129.71554688 318.54370117 131.00073242 C323.43836086 135.90799972 328.12988617 140.91755349 332.60961914 146.20581055 C333.15183105 146.84131836 333.69404297 147.47682617 334.25268555 148.1315918 C343.26806202 158.76497562 351.65062203 169.76260594 359.60961914 181.20581055 C360.05257324 181.84196289 360.49552734 182.47811523 360.9519043 183.13354492 C400.47457516 240.28426837 424.17557271 305.47960764 432.60961914 374.20581055 C432.806604 375.80175049 432.806604 375.80175049 433.00756836 377.42993164 C445.20802711 482.78508527 414.91858511 594.37389595 351.60961914 679.20581055 C351.00754639 680.01405273 351.00754639 680.01405273 350.39331055 680.83862305 C341.42393594 692.83094332 331.70772201 704.15248173 321.60961914 715.20581055 C320.71356983 716.19519832 319.81774637 717.18479068 318.92211914 718.17456055 C311.54034533 726.30983945 304.04243182 734.24194552 295.69555664 741.40112305 C293.35936413 743.4223233 291.07997063 745.49959894 288.79711914 747.58081055 C238.55100551 792.74926262 177.581027 822.88413477 112.60961914 840.20581055 C111.70791992 840.45169922 110.8062207 840.69758789 109.87719727 840.95092773 C26.3271068 863.52942173 -64.7306593 855.15066152 -205.61694336 797.98706055 C-228.21261871 784.9535862 -249.39010421 769.92690904 -269.39038086 753.20581055 C-270.22037598 752.51334229 -270.22037598 752.51334229 -271.06713867 751.80688477 C-278.08834052 745.93132905 -284.82236533 739.94104543 -291.21850586 733.37768555 C-293.1040816 731.49210981 -295.02111433 729.7735476 -297.07788086 728.08081055 C-300.29891574 725.40290099 -302.94122803 722.38620165 -305.64819336 719.19799805 C-307.28111729 717.3307532 -308.97967224 715.61318659 -310.76538086 713.89331055 C-314.5588197 710.16776323 -317.82949023 706.07377337 -321.15600586 701.93237305 C-323.06239337 699.60604703 -325.02832704 697.40426358 -327.07788086 695.20581055 C-377.24111523 639.18192107 -405.59482287 564.1922378 -418.39038086 491.20581055 C-418.5747168 490.1684375 -418.75905273 489.13106445 -418.94897461 488.06225586 C-423.27690427 463.1230083 -423.93513941 437.45697175 -423.39038086 412.20581055 C-423.37104492 411.25448242 -423.35170898 410.3031543 -423.33178711 409.32299805 C-420.96242839 310.36742807 -381.65421018 214.59567786 -290.39038086 114.20581055 C-288.40513909 112.39490004 -286.39540798 110.62874091 -284.34741211 108.8894043 C-282.96615752 107.70113937 -281.61148936 106.48162862 -280.27709961 105.2409668 C-272.44134274 97.95832217 -263.9451868 91.60680911 -255.39038086 85.20581055 C-254.74375488 84.71790039 -254.09712891 84.22999023 -253.4309082 83.72729492 C-237.23134437 71.5110919 -220.15761484 60.98611223 -202.39038086 51.20581055 C-201.4801416 50.70404297 -200.56990234 50.20227539 -199.63208008 49.68530273 C-152.53130263 23.92771211 -99.78846691 7.72204746 -46.39038086 2.20581055 C-45.61690308 2.1234465 -44.84342529 2.04108246 -44.04650879 1.95622253 C-29.34080012 0.4201367 -14.78126191 -0.08153572 0 0 Z M-40.39038086 13.20581055 C-41.35959473 13.31296387 -42.32880859 13.42011719 -43.32739258 13.53051758 C-86.83814857 18.35101256 -128.76210941 28.57940375 -168.62963867 46.93481445 C-170.47412543 47.78398301 -172.32248684 48.62478417 -174.17456055 49.45727539 C-197.59406711 59.99156372 -219.55728263 73.21421175 -240.39038086 88.20581055 C-240.95176758 88.60815918 -241.5131543 89.01050781 -242.09155273 89.42504883 C-254.59671521 98.4448461 -266.53668662 108.27655392 -277.80053711 118.79956055 C-279.93694979 120.78452315 -282.10480601 122.69512544 -284.32788086 124.58081055 C-292.32709107 131.52573155 -299.89629089 139.20272629 -306.74194336 147.28393555 C-307.91620517 148.65298012 -309.12326841 149.99417565 -310.35131836 151.31518555 C-317.03145412 158.50175759 -322.91818201 166.22523932 -328.79125977 174.0715332 C-330.26833 176.04291457 -331.75609412 178.00573071 -333.24584961 179.9675293 C-340.55740873 189.67481863 -347.09935471 199.81247288 -353.39038086 210.20581055 C-353.87619629 211.00696289 -354.36201172 211.80811523 -354.86254883 212.63354492 C-387.60302389 267.10984489 -406.75504786 328.86467973 -411.39038086 392.20581055 C-411.47715088 393.35799072 -411.47715088 393.35799072 -411.56567383 394.53344727 C-416.70661542 466.18627415 -403.48009829 538.35836657 -372.39038086 603.20581055 C-371.95000488 604.13425781 -371.50962891 605.06270508 -371.0559082 606.01928711 C-353.19705506 643.47629039 -329.30053084 676.64860807 -301.39038086 707.20581055 C-300.08907227 708.66374023 -300.08907227 708.66374023 -298.76147461 710.15112305 C-281.58426986 729.26437481 -262.01136454 745.94056109 -241.39038086 761.20581055 C-240.71668457 761.70580566 -240.04298828 762.20580078 -239.34887695 762.72094727 C-170.1245757 813.74337879 -85.67607379 841.50965245 0.20532227 841.33618164 C3.34013762 841.33084372 6.47480824 841.33614575 9.60961914 841.3425293 C28.03824427 841.35106397 46.15820936 840.5928769 64.42211914 838.08081055 C65.21033051 837.97387878 65.99854187 837.86694702 66.81063843 837.7567749 C82.68059191 835.57695966 98.12122606 832.32887815 113.60961914 828.20581055 C114.66922852 827.92479492 115.72883789 827.6437793 116.82055664 827.35424805 C167.29644635 813.74991505 214.93443497 790.80321447 256.60961914 759.20581055 C257.25640625 758.7159668 257.90319336 758.22612305 258.56958008 757.72143555 C266.23823381 751.87865175 273.50854917 745.73179387 280.60961914 739.20581055 C281.89744095 738.07641126 283.18897336 736.95122555 284.48461914 735.83081055 C295.48554105 726.22718315 306.34822987 716.36103762 315.84790039 705.24487305 C317.80567653 702.97888825 319.83190862 700.78437561 321.85961914 698.58081055 C327.44639416 692.37958481 332.53218693 685.82402782 337.60961914 679.20581055 C338.09865723 678.57368652 338.58769531 677.9415625 339.09155273 677.2902832 C362.71884824 646.70336725 381.64715102 612.20318616 395.60961914 576.20581055 C396.13845703 574.86437988 396.13845703 574.86437988 396.67797852 573.49584961 C409.72862095 540.1836563 417.49805105 504.68880213 421.60961914 469.20581055 C421.6968222 468.45858734 421.78402527 467.71136414 421.87387085 466.9414978 C423.47240548 452.90804085 423.97378241 439.01125518 423.92211914 424.89331055 C423.92029633 423.85054962 423.91847351 422.8077887 423.91659546 421.73342896 C423.86390456 403.71880601 423.00871206 386.07385792 420.60961914 368.20581055 C420.44333008 366.94140137 420.27704102 365.67699219 420.10571289 364.37426758 C413.89917992 318.67004838 399.91140591 274.99140487 378.58227539 234.08178711 C377.57493796 232.13892045 376.59174404 230.18496587 375.60961914 228.22924805 C363.95384204 205.30150154 349.1412045 183.87747357 332.60961914 164.20581055 C331.17176456 162.41442842 329.73427356 160.62275443 328.29711914 158.83081055 C319.81931212 148.52191255 310.53198241 139.02129262 301.13626099 129.55722046 C300.09328278 128.50619054 299.05178838 127.45368567 298.01193237 126.39956665 C291.21498771 119.51937559 284.18218033 113.24172066 276.60961914 107.20581055 C275.50782479 106.27099117 274.41148066 105.32964691 273.32446289 104.37768555 C223.57543285 60.99597159 160.40094744 34.52705722 96.60961914 20.20581055 C95.46243408 19.94437256 94.31524902 19.68293457 93.13330078 19.41357422 C50.13820384 9.85610934 3.33004024 8.03863719 -40.39038086 13.20581055 Z " fill="#DB7829" transform="translate(506.390380859375,83.794189453125)"/>
<path d="M0 0 C1.0856866 -0.00551503 1.0856866 -0.00551503 2.19330627 -0.01114148 C4.62520062 -0.0221783 7.05705224 -0.02602216 9.4889679 -0.02983093 C11.23010392 -0.03609563 12.97123861 -0.04274243 14.71237183 -0.04974365 C20.43647836 -0.07078714 26.16058516 -0.08114685 31.88471985 -0.09111023 C33.85548733 -0.09515779 35.82625467 -0.09927471 37.79702187 -0.10346031 C47.05654317 -0.12251324 56.31605651 -0.13674361 65.57559365 -0.14507228 C76.26196286 -0.15484311 86.94812485 -0.18115819 97.63442105 -0.22157317 C105.89526186 -0.2517423 114.1560433 -0.26654195 122.41693813 -0.26985329 C127.35021296 -0.27220303 132.28326645 -0.28115353 137.21648216 -0.30631447 C141.85978355 -0.32961384 146.50271814 -0.33382091 151.14606285 -0.32355309 C152.84719056 -0.32305805 154.54833643 -0.32936885 156.24940872 -0.34310913 C172.27412838 -0.46527014 172.27412838 -0.46527014 178.9355011 4.14717102 C183.55382425 9.00233126 184.32027912 13.07755534 184.19721985 19.58076477 C183.78043414 23.66775298 182.70607373 26.13411616 179.9355011 29.14717102 C171.70985541 35.32774546 162.53857216 34.85268693 152.77095032 34.77827454 C151.04847987 34.78342025 149.3260147 34.79070643 147.6035614 34.79995728 C142.95067192 34.81839378 138.2983591 34.80558307 133.64549398 34.78586698 C128.76454652 34.76942015 123.88363385 34.7783015 119.00267029 34.78338623 C110.81010275 34.7878996 102.6177641 34.7720822 94.42524719 34.74409485 C84.96497803 34.71202501 75.50512107 34.71206947 66.04482257 34.72930962 C56.92621835 34.74519213 47.80776469 34.73843142 38.68916702 34.7213726 C34.81612749 34.71451532 30.94320913 34.71552088 27.07017136 34.72291756 C22.50795954 34.73059845 17.94621502 34.7183956 13.38408279 34.69106865 C11.71361426 34.68420344 10.04310193 34.6840668 8.37263489 34.69128418 C-9.17246797 34.7583351 -9.17246797 34.7583351 -15.59977913 28.70003605 C-19.79245397 24.05692784 -20.4448029 20.33287713 -20.34184265 14.16670227 C-19.69129475 9.429614 -16.44980648 6.34397938 -13.0019989 3.33467102 C-8.54991847 0.01929198 -5.43120027 0.01786113 0 0 Z " fill="#F8F7F6" transform="translate(430.0644989013672,501.8528289794922)"/>
<path d="M0 0 C1.10518051 -0.0083016 1.10518051 -0.0083016 2.23268789 -0.0167709 C4.68480795 -0.03031053 7.13589827 -0.0154456 9.58799744 -0.00050354 C11.35267568 -0.00428913 13.11735096 -0.00979116 14.88201904 -0.01687622 C19.6629735 -0.03081573 24.44356748 -0.01967206 29.22450185 -0.00316501 C34.23185449 0.01070409 39.23918659 0.00422337 44.24655151 0.0007019 C52.65372006 -0.00199849 61.0607457 0.01146162 69.46788025 0.03465271 C79.18425538 0.06127 88.90039173 0.06300615 98.61679083 0.05126435 C107.96977227 0.04048174 117.32266742 0.04667688 126.67564201 0.06081963 C130.65358459 0.06657435 134.63146393 0.06650079 138.60940742 0.06175423 C143.29379017 0.05697857 147.97791172 0.06711056 152.6622448 0.08870888 C154.38032017 0.09426856 156.09842069 0.09474955 157.8164978 0.08975601 C160.16367998 0.08378998 162.51006711 0.09633281 164.85717773 0.11352539 C166.82631685 0.11717023 166.82631685 0.11717023 168.83523655 0.12088871 C173.30643701 0.60262796 176.70299279 1.94964494 180.0096283 5.03636169 C184.57351189 11.00451716 185.12606456 15.02892721 184.36509705 22.50120544 C182.17983363 26.95266796 179.42564495 29.6900569 175.36509705 32.50120544 C171.80913116 33.6865274 168.97341698 33.6361768 165.21794128 33.64837646 C164.11894568 33.6538915 164.11894568 33.6538915 162.99774814 33.65951794 C160.53588082 33.67055542 158.07405572 33.67439872 155.61216736 33.6782074 C153.84970465 33.68447199 152.08724326 33.69111878 150.32478333 33.69812012 C144.53093893 33.71916286 138.73709425 33.72952246 132.94322205 33.73948669 C130.9489058 33.74353412 128.9545897 33.74765104 126.96027374 33.75183678 C117.59129759 33.77088863 108.22232933 33.78511988 98.85333753 33.79344875 C88.03734832 33.80322264 77.22156368 33.82954619 66.40564656 33.86994964 C58.04630841 33.90010518 49.68702892 33.91491708 41.32763743 33.91822976 C36.33459192 33.92058083 31.34176495 33.92954878 26.34877777 33.95469093 C21.65048874 33.97796688 16.95256224 33.9822068 12.2542305 33.97192955 C10.53171966 33.97143397 8.809191 33.97776103 7.08673477 33.9914856 C4.73078579 34.00920452 2.37613789 34.00209942 0.02018738 33.98895264 C-1.29684551 33.99134099 -2.6138784 33.99372934 -3.97082138 33.99619007 C-9.48258051 33.25160074 -13.14063272 31.07412148 -17.00990295 27.00120544 C-19.91959397 22.52475773 -20.46872291 17.79164932 -19.63490295 12.50120544 C-16.02023267 3.5536808 -9.42878292 0.00150273 0 0 Z " fill="#FAF9F9" transform="translate(429.63490295410156,427.49879455566406)"/>
<path d="M0 0 C3.20137311 3.44138378 3.35599742 5.89352274 3.29296875 10.515625 C3.28330078 11.76601563 3.27363281 13.01640625 3.26367188 14.3046875 C3.23853516 15.60664063 3.21339844 16.90859375 3.1875 18.25 C3.16719727 20.22613281 3.16719727 20.22613281 3.14648438 22.2421875 C3.11112551 25.49520321 3.06177033 28.747396 3 32 C2.67 32 2.34 32 2 32 C-0.38297872 10.46808511 -0.38297872 10.46808511 0 0 Z " fill="#945020" transform="translate(731,486)"/>
<path d="M0 0 C0.33 0.99 0.66 1.98 1 3 C-1.31 4.98 -3.62 6.96 -6 9 C-6.66 8.67 -7.32 8.34 -8 8 C-5.36 5.36 -2.72 2.72 0 0 Z " fill="#7E2904" transform="translate(354,349)"/>
<path d="M0 0 C3.63 0 7.26 0 11 0 C11 0.33 11 0.66 11 1 C8.03 1 5.06 1 2 1 C2 1.66 2 2.32 2 3 C1.01 3 0.02 3 -1 3 C-0.67 2.01 -0.34 1.02 0 0 Z " fill="#F7EEE4" transform="translate(521,95)"/>
</svg>
