<?xml version="1.0" encoding="UTF-8"?>
<svg version="1.1" xmlns="http://www.w3.org/2000/svg" width="250" height="41">
<path d="M0 0 C82.5 0 165 0 250 0 C250 13.53 250 27.06 250 41 C167.5 41 85 41 0 41 C0 27.47 0 13.94 0 0 Z " fill="#FCFBF9" transform="translate(0,0)"/>
<path d="M0 0 C3.3 0 6.6 0 10 0 C10 3.63 10 7.26 10 11 C10.99 9.9275 11.98 8.855 13 7.75 C13.556875 7.14671875 14.11375 6.5434375 14.6875 5.921875 C16.37597443 3.837347 16.37597443 3.837347 16 0 C18.64 0 21.28 0 24 0 C23 3 23 3 20 5.375 C16.95560667 7.65784656 16.95560667 7.65784656 16.03515625 10.24609375 C15.9838291 14.26672054 18.0863781 16.63000275 20.4375 19.6875 C25 25.79569094 25 25.79569094 25 28 C20.77202073 28.96891192 20.77202073 28.96891192 18 28 C14.89358201 24.61265378 12.43211464 20.89138342 10 17 C10 20.63 10 24.26 10 28 C6.7 28 3.4 28 0 28 C0 27.34 0 26.68 0 26 C0.66 26 1.32 26 2 26 C2 18.08 2 10.16 2 2 C1.34 2 0.68 2 0 2 C0 1.34 0 0.68 0 0 Z " fill="#AA6627" transform="translate(139,3)"/>
<path d="M0 0 C2.58396679 -0.08112454 5.16537568 -0.14054748 7.75 -0.1875 C8.47960938 -0.21263672 9.20921875 -0.23777344 9.9609375 -0.26367188 C13.22188355 -0.30813932 15.58123484 -0.22285932 18.48828125 1.32421875 C20 3 20 3 20.4375 6 C20 9 20 9 18.625 10.875 C17 12 17 12 15 12 C18.465 17.94 18.465 17.94 22 24 C19.69 24 17.38 24 15 24 C14.16151196 22.54462432 13.32936066 21.08559627 12.5 19.625 C12.0359375 18.81289063 11.571875 18.00078125 11.09375 17.1640625 C10 15 10 15 10 13 C9.34 13 8.68 13 8 13 C8.33 16.63 8.66 20.26 9 24 C6.03 24 3.06 24 0 24 C0.33 23.34 0.66 22.68 1 22 C1.09540112 20.50238238 1.13073486 19.00065172 1.1328125 17.5 C1.13410156 16.613125 1.13539062 15.72625 1.13671875 14.8125 C1.13285156 13.884375 1.12898437 12.95625 1.125 12 C1.12886719 11.071875 1.13273438 10.14375 1.13671875 9.1875 C1.13542969 8.300625 1.13414063 7.41375 1.1328125 6.5 C1.13168457 5.6853125 1.13055664 4.870625 1.12939453 4.03125 C1.12801503 1.93149048 1.12801503 1.93149048 0 0 Z " fill="#A7601F" transform="translate(8,6)"/>
<path d="M0 0 C0 1.32 0 2.64 0 4 C-0.99 4.495 -0.99 4.495 -2 5 C-1.87625 6.3921875 -1.87625 6.3921875 -1.75 7.8125 C-2 11 -2 11 -3.5625 12.875 C-6.80273788 14.3704944 -9.47606359 14.20330402 -13 14 C-13 14.66 -13 15.32 -13 16 C-12.09507813 15.94779297 -12.09507813 15.94779297 -11.171875 15.89453125 C-4.5626072 15.67066895 -4.5626072 15.67066895 -1.4375 17.5 C-0.963125 17.995 -0.48875 18.49 0 19 C-0.30974383 21.89094238 -1.04170446 23.04691751 -3 25.25 C-6.98627422 27.57532663 -10.47098739 27.72939154 -15 27 C-15.99 26.34 -16.98 25.68 -18 25 C-17.9278125 24.32453125 -17.855625 23.6490625 -17.78125 22.953125 C-17.6884375 22.06109375 -17.595625 21.1690625 -17.5 20.25 C-17.4071875 19.36828125 -17.314375 18.4865625 -17.21875 17.578125 C-16.9447734 14.34911511 -16.98098851 11.22813788 -17.25 8 C-17 5 -17 5 -15.5625 2.625 C-12.23585604 0.5154209 -9.87801678 0.72012189 -6.0234375 0.95703125 C-3.67614496 1.00687723 -2.3416653 0 0 0 Z " fill="#AB682A" transform="translate(134,11)"/>
<path d="M0 0 C0 5.28 0 10.56 0 16 C1.65 15.67 3.3 15.34 5 15 C4.98839844 14.00097656 4.97679687 13.00195312 4.96484375 11.97265625 C4.95582031 10.68230469 4.94679687 9.39195313 4.9375 8.0625 C4.92589844 6.77472656 4.91429687 5.48695312 4.90234375 4.16015625 C5 1 5 1 6 0 C7.98 0 9.96 0 12 0 C12.33 6.6 12.66 13.2 13 20 C10.69 20 8.38 20 6 20 C6 19.34 6 18.68 6 18 C5.01 18.66 4.02 19.32 3 20 C-0.4877055 20.445239 -2.26963578 20.51663107 -5.17578125 18.4609375 C-7.65154666 15.12103984 -7.44558383 12.22937861 -7.25 8.25 C-7.23195312 7.55261719 -7.21390625 6.85523438 -7.1953125 6.13671875 C-7.14838554 4.42388461 -7.07664605 2.71176176 -7 1 C-5 0 -5 0 0 0 Z " fill="#AC6B2E" transform="translate(213,11)"/>
<path d="M0 0 C2.973551 2.21810831 3.89355611 3.45345159 4.609375 7.12890625 C4.65578125 8.26199219 4.7021875 9.39507812 4.75 10.5625 C4.80671875 11.69816406 4.8634375 12.83382813 4.921875 14.00390625 C4.973979 16.00209461 5 18.00113244 5 20 C2 20 -1 20 -4 20 C-5.010625 20.061875 -6.02125 20.12375 -7.0625 20.1875 C-10 20 -10 20 -11.9375 18.8125 C-13 17 -13 17 -12.9375 14.5 C-11.78332731 11.42220617 -10.87973935 10.55661586 -8 9 C-4.75 8.3125 -4.75 8.3125 -2 8 C-2 6.35 -2 4.7 -2 3 C-5.37503669 4.1858237 -7.64722731 5.27573689 -10 8 C-10.66 6.35 -11.32 4.7 -12 3 C-7.92081084 0.03331698 -5.01742187 -0.63858096 0 0 Z " fill="#A6601F" transform="translate(178,11)"/>
<path d="M0 0 C2.64 0 5.28 0 8 0 C7.95875 0.928125 7.9175 1.85625 7.875 2.8125 C7.72863661 6.15809719 7.72863661 6.15809719 10 9 C10.72256829 4.51866426 10.72256829 4.51866426 11 0 C13.31 0 15.62 0 18 0 C18.66 2.97 19.32 5.94 20 9 C21.88343932 5.23312136 22.22057835 3.97041037 22 0 C23.65 0 25.3 0 27 0 C25.33846988 5.85659906 23.52958084 11.4590134 21 17 C19.35 16.67 17.7 16.34 16 16 C15.34 14.02 14.68 12.04 14 10 C12.68 12.31 11.36 14.62 10 17 C8.68 17 7.36 17 6 17 C5.18710947 14.72930578 4.37467262 12.45845099 3.5625 10.1875 C3.21735352 9.22360352 3.21735352 9.22360352 2.86523438 8.24023438 C1.88582149 5.50071717 0.92004638 2.76013914 0 0 Z " fill="#A86324" transform="translate(50,13)"/>
<path d="M0 0 C2.9375 2.1875 2.9375 2.1875 5 5 C5 6.65 5 8.3 5 10 C1.37 10 -2.26 10 -6 10 C-5.34 11.65 -4.68 13.3 -4 15 C-1.36 15 1.28 15 4 15 C2.25 18.875 2.25 18.875 0 20 C-6.99869622 20.68839635 -6.99869622 20.68839635 -11 17.9375 C-13.52217356 14.23305758 -13.61871554 12.40834824 -13 8 C-10.30695547 1.20326856 -7.38094216 -0.89080336 0 0 Z " fill="#AA6729" transform="translate(241,11)"/>
<path d="M0 0 C2.31 0 4.62 0 7 0 C7 4.62 7 9.24 7 14 C8.65 14 10.3 14 12 14 C11.67 9.38 11.34 4.76 11 0 C13.31 0 15.62 0 18 0 C18.495 8.415 18.495 8.415 19 17 C16.40125 17.061875 13.8025 17.12375 11.125 17.1875 C10.30789551 17.21481201 9.49079102 17.24212402 8.64892578 17.27026367 C6.763924 17.29217134 4.87923237 17.14898777 3 17 C0.57520264 13.36280395 0.61337423 11.14296518 0.375 6.8125 C0.30023437 5.54019531 0.22546875 4.26789062 0.1484375 2.95703125 C0.09945313 1.98121094 0.05046875 1.00539063 0 0 Z " fill="#AC6A2D" transform="translate(30,13)"/>
<path d="M0 0 C2.97 0 5.94 0 9 0 C9.12375 0.9075 9.2475 1.815 9.375 2.75 C9.92109677 5.58970323 10.57263803 7.52590591 12 10 C13.60355101 6.49223216 14.22036864 3.85645121 14 0 C15.98 0 17.96 0 20 0 C18.89947487 2.87644103 17.79471749 5.75113569 16.6875 8.625 C16.2244043 9.83736328 16.2244043 9.83736328 15.75195312 11.07421875 C10.55117638 24.54149328 10.55117638 24.54149328 7 27 C4.3125 27.1875 4.3125 27.1875 2 27 C1.67 25.68 1.34 24.36 1 23 C4 22 4 22 8 22 C7.29807915 17.06678166 5.36469225 12.74025318 3.4375 8.1875 C3.10814453 7.39923828 2.77878906 6.61097656 2.43945312 5.79882812 C1.63041094 3.86416204 0.81576148 1.93184247 0 0 Z " fill="#A86222" transform="translate(184,12)"/>
<path d="M0 0 C1.18722656 -0.05607422 1.18722656 -0.05607422 2.3984375 -0.11328125 C4.625 0.3125 4.625 0.3125 6.37109375 1.91015625 C7.99631857 5.02390474 8.13764721 7.56544422 8.3125 11.0625 C8.37824219 12.23296875 8.44398437 13.4034375 8.51171875 14.609375 C8.54910156 15.50140625 8.58648437 16.3934375 8.625 17.3125 C6.14576199 17.33935095 3.6668116 17.35926547 1.1875 17.375 C0.48044922 17.38337891 -0.22660156 17.39175781 -0.95507812 17.40039062 C-2.76193559 17.40903588 -4.56887603 17.36470011 -6.375 17.3125 C-7.375 16.3125 -7.375 16.3125 -7.5625 13.375 C-7.375 10.3125 -7.375 10.3125 -5.375 8.3125 C-3.05224823 7.91202556 -0.71760643 7.5727896 1.625 7.3125 C1.625 5.6625 1.625 4.0125 1.625 2.3125 C0.305 2.3125 -1.015 2.3125 -2.375 2.3125 C-2.705 3.6325 -3.035 4.9525 -3.375 6.3125 C-4.365 5.9825 -5.355 5.6525 -6.375 5.3125 C-5.32671523 0.67009601 -4.79616764 0.14745499 0 0 Z " fill="#AC6A2C" transform="translate(85.375,12.6875)"/>
<path d="M0 0 C2.43375 -0.04125 4.8675 -0.0825 7.375 -0.125 C8.13989746 -0.14320801 8.90479492 -0.16141602 9.69287109 -0.18017578 C11.46287275 -0.1948117 13.23272455 -0.09928514 15 0 C17.84614024 2.84614024 17.45579076 5.80369142 17.625 9.625 C17.66367188 10.33140625 17.70234375 11.0378125 17.7421875 11.765625 C17.83647724 13.50998524 17.91932891 15.25495691 18 17 C15.69 17 13.38 17 11 17 C11 12.71 11 8.42 11 4 C9.35 3.67 7.7 3.34 6 3 C6.33 7.62 6.66 12.24 7 17 C4.69 17 2.38 17 0 17 C0 11.39 0 5.78 0 0 Z " fill="#A65F1E" transform="translate(96,13)"/>
<path d="M0 0 C4.875 0.875 4.875 0.875 6 2 C6.4664311 7.3639576 6.4664311 7.3639576 4.625 9.875 C3 11 3 11 1 11 C3.31 14.96 5.62 18.92 8 23 C5.69 23 3.38 23 1 23 C0.16151196 21.54462432 -0.67063934 20.08559627 -1.5 18.625 C-1.9640625 17.81289063 -2.428125 17.00078125 -2.90625 16.1640625 C-4 14 -4 14 -4 12 C-4.66 11.67 -5.32 11.34 -6 11 C-5.195625 10.67 -4.39125 10.34 -3.5625 10 C-0.87589576 8.31078867 -0.87589576 8.31078867 -0.4453125 6.01953125 C-0.2118705 4.02112624 -0.09883105 2.00956467 0 0 Z " fill="#A65F1D" transform="translate(22,7)"/>
<path d="M0 0 C0.08096803 1.45742463 0.13917774 2.91612807 0.1875 4.375 C0.22230469 5.18710937 0.25710937 5.99921875 0.29296875 6.8359375 C0.19628906 7.55007812 0.09960938 8.26421875 0 9 C-3.46923881 11.31282587 -4.92205575 11.42478586 -9 11 C-10.9375 9.8125 -10.9375 9.8125 -12 8 C-11.92045754 4.81830153 -11.48909833 3.47223287 -9.1875 1.25 C-5.6327838 -0.7812664 -3.94462378 -1.31487459 0 0 Z " fill="#A96425" transform="translate(177,20)"/>
<path d="M0 0 C0.99 0.66 1.98 1.32 3 2 C2.69025617 4.89094238 1.95829554 6.04691751 0 8.25 C-3.96101718 10.56059336 -7.49432822 10.76127264 -12 10 C-12.66 9.34 -13.32 8.68 -14 8 C-13 5 -13 5 -11 3 C-8.66842508 2.65458149 -6.33491639 2.32205743 -4 2 C-1.66411677 1.04415562 -1.66411677 1.04415562 0 0 Z " fill="#AA6729" transform="translate(131,28)"/>
<path d="M0 0 C1.98 0 3.96 0 6 0 C6 5.61 6 11.22 6 17 C4.35 16.67 2.7 16.34 1 16 C0.67 10.72 0.34 5.44 0 0 Z " fill="#A45C19" transform="translate(218,12)"/>
<path d="M0 0 C6.4 -0.36923077 6.4 -0.36923077 9.4375 1.5 C9.953125 1.995 10.46875 2.49 11 3 C10.67 4.65 10.34 6.3 10 8 C6.7 8 3.4 8 0 8 C0.875 3.125 0.875 3.125 2 2 C1.34 1.34 0.68 0.68 0 0 Z " fill="#AD6B2E" transform="translate(234,11)"/>
<path d="M0 0 C0.33 0.99 0.66 1.98 1 3 C3.97 3 6.94 3 10 3 C10.33 3.66 10.66 4.32 11 5 C8.30203592 6.61877845 6.57963193 7.04348635 3.375 7.375 C-0.0848971 7.60697604 -0.0848971 7.60697604 -1.4375 10.0625 C-1.7159375 11.0215625 -1.7159375 11.0215625 -2 12 C-2.66 12 -3.32 12 -4 12 C-3.9129995 10.37399059 -3.8048219 8.74910322 -3.6875 7.125 C-3.62949219 6.22007813 -3.57148437 5.31515625 -3.51171875 4.3828125 C-3 2 -3 2 0 0 Z " fill="#A65E1C" transform="translate(120,24)"/>
<path d="M0 0 C0 1.32 0 2.64 0 4 C-0.99 4.495 -0.99 4.495 -2 5 C-1.87625 6.3921875 -1.87625 6.3921875 -1.75 7.8125 C-2 11 -2 11 -3.6875 12.875 C-6.33270547 14.16185671 -8.09433826 14.24213848 -11 14 C-10.01 13.67 -9.02 13.34 -8 13 C-7.67 10.03 -7.34 7.06 -7 4 C-6.34 4 -5.68 4 -5 4 C-4.67 3.01 -4.34 2.02 -4 1 C-2 0 -2 0 0 0 Z " fill="#A96425" transform="translate(134,11)"/>
<path d="M0 0 C2.125 0.375 2.125 0.375 4 1 C3.67 2.65 3.34 4.3 3 6 C4.65 6 6.3 6 8 6 C8 6.66 8 7.32 8 8 C5.01787087 9.49106457 2.28390342 9.11941467 -1 9 C-2 8 -2 8 -2.1875 5.0625 C-2 2 -2 2 0 0 Z " fill="#AA6627" transform="translate(80,21)"/>
<path d="M0 0 C4.875 0.875 4.875 0.875 6 2 C6.1875 4.4375 6.1875 4.4375 6 7 C5.34 7.66 4.68 8.32 4 9 C2.68 9 1.36 9 0 9 C0 6.03 0 3.06 0 0 Z " fill="#FBF8F6" transform="translate(16,8)"/>
<path d="M0 0 C1.65 0 3.3 0 5 0 C3.41078475 5.36095277 1.81027062 10.70843973 0 16 C-0.66 16 -1.32 16 -2 16 C-2.6875 12.75 -2.6875 12.75 -3 9 C-1.5625 6.875 -1.5625 6.875 0 5 C0.25124826 2.33238236 0.25124826 2.33238236 0 0 Z " fill="#AC6B2E" transform="translate(72,13)"/>
<path d="M0 0 C1.98 0 3.96 0 6 0 C6.33 6.6 6.66 13.2 7 20 C4.69 20 2.38 20 0 20 C-0.33 19.34 -0.66 18.68 -1 18 C-3.01669827 16.86649466 -3.01669827 16.86649466 -5 16 C-3.02 15.67 -1.04 15.34 1 15 C1 15.66 1 16.32 1 17 C2.32 17.33 3.64 17.66 5 18 C5 12.39 5 6.78 5 1 C3.35 1 1.7 1 0 1 C0 0.67 0 0.34 0 0 Z " fill="#B2743B" transform="translate(219,11)"/>
<path d="M0 0 C0 0.66 0 1.32 0 2 C-1.6396875 2.6496875 -1.6396875 2.6496875 -3.3125 3.3125 C-6.09408793 4.49495641 -8.06361939 5.60800043 -10 8 C-10.66 6.35 -11.32 4.7 -12 3 C-7.89542386 0.01485372 -5.02254631 -0.2954439 0 0 Z " fill="#AE6D31" transform="translate(178,11)"/>
<path d="M0 0 C1.23556641 0.01740234 1.23556641 0.01740234 2.49609375 0.03515625 C3.32238281 0.04417969 4.14867188 0.05320312 5 0.0625 C5.63808594 0.07410156 6.27617188 0.08570313 6.93359375 0.09765625 C6.93359375 3.61481928 6.1091379 4.46887373 3.93359375 7.09765625 C3.93359375 5.44765625 3.93359375 3.79765625 3.93359375 2.09765625 C2.61359375 2.09765625 1.29359375 2.09765625 -0.06640625 2.09765625 C-0.39640625 3.41765625 -0.72640625 4.73765625 -1.06640625 6.09765625 C-2.05640625 5.76765625 -3.04640625 5.43765625 -4.06640625 5.09765625 C-2.94676868 0.13926128 -2.94676868 0.13926128 0 0 Z " fill="#B07238" transform="translate(83.06640625,12.90234375)"/>
<path d="M0 0 C0.99 0 1.98 0 3 0 C4.35439668 2.70879335 4.06501451 5.00933268 4 8 C2.0625 8.5625 2.0625 8.5625 0 9 C-1 8 -1 8 -1.125 4.5 C-1 1 -1 1 0 0 Z " fill="#F6EFE9" transform="translate(123,14)"/>
<path d="M0 0 C1.32 0 2.64 0 4 0 C4 1.65 4 3.3 4 5 C1.69 5.66 -0.62 6.32 -3 7 C-2.25 2.25 -2.25 2.25 0 0 Z " fill="#F8F2ED" transform="translate(172,14)"/>
<path d="M0 0 C-1.75 3.875 -1.75 3.875 -4 5 C-6.6723621 5.13415472 -9.32250488 5.04318541 -12 5 C-12 4.34 -12 3.68 -12 3 C-10.35 3 -8.7 3 -7 3 C-7 2.34 -7 1.68 -7 1 C-2.25 0 -2.25 0 0 0 Z " fill="#AE6D31" transform="translate(245,26)"/>
<path d="M0 0 C2.97 0.33 5.94 0.66 9 1 C8.67 1.99 8.34 2.98 8 4 C5.36 4 2.72 4 0 4 C0 2.68 0 1.36 0 0 Z " fill="#F5EEE7" transform="translate(120,31)"/>
<path d="M0 0 C1.32 0 2.64 0 4 0 C4 1.65 4 3.3 4 5 C0.71303767 5.79953138 -0.71023192 6.09658936 -4 5 C-3.67 4.34 -3.34 3.68 -3 3 C-2.34 3.33 -1.68 3.66 -1 4 C-0.67 2.68 -0.34 1.36 0 0 Z " fill="#F5EDE6" transform="translate(83,15)"/>
<path d="M0 0 C1.32 0.66 2.64 1.32 4 2 C3.67 3.32 3.34 4.64 3 6 C1.35 6 -0.3 6 -2 6 C-1.125 1.125 -1.125 1.125 0 0 Z " fill="#EFE2D6" transform="translate(236,13)"/>
<path d="M0 0 C4.95 0.99 4.95 0.99 10 2 C10.33 2.99 10.66 3.98 11 5 C9.54207116 5.05399736 8.08357288 5.09279177 6.625 5.125 C5.81289062 5.14820313 5.00078125 5.17140625 4.1640625 5.1953125 C2 5 2 5 0 3 C0 2.01 0 1.02 0 0 Z " fill="#BB8451" transform="translate(117,33)"/>
<path d="M0 0 C0 1.98 0 3.96 0 6 C-1.65 6 -3.3 6 -5 6 C-4.67 4.35 -4.34 2.7 -4 1 C-1 0 -1 0 0 0 Z " fill="#F8F4EF" transform="translate(176,21)"/>
<path d="M0 0 C1.98 0 3.96 0 6 0 C4.02 0.99 4.02 0.99 2 2 C2 5.96 2 9.92 2 14 C1.67 14 1.34 14 1 14 C0.67 9.38 0.34 4.76 0 0 Z " fill="#A96424" transform="translate(96,13)"/>
<path d="M0 0 C0.99 0 1.98 0 3 0 C3 1.65 3 3.3 3 5 C1.68 5 0.36 5 -1 5 C-0.67 3.35 -0.34 1.7 0 0 Z " fill="#F9F4F0" transform="translate(84,22)"/>
<path d="M0 0 C2 3 2 3 1.625 6.1875 C1.41875 7.115625 1.2125 8.04375 1 9 C0.34 9 -0.32 9 -1 9 C-1.625 5.625 -1.625 5.625 -2 2 C-1.34 1.34 -0.68 0.68 0 0 Z " fill="#B9814E" transform="translate(71,20)"/>
<path d="M0 0 C0 1.98 0 3.96 0 6 C-0.3403125 5.0409375 -0.3403125 5.0409375 -0.6875 4.0625 C-1.85250896 1.72806339 -1.85250896 1.72806339 -4.625 1.25 C-5.40875 1.1675 -6.1925 1.085 -7 1 C-3.375 -1.125 -3.375 -1.125 0 0 Z " fill="#B77E48" transform="translate(177,20)"/>
<path d="M0 0 C1.98 0.495 1.98 0.495 4 1 C3.34 2.32 2.68 3.64 2 5 C1.01 4.67 0.02 4.34 -1 4 C-0.67 2.68 -0.34 1.36 0 0 Z " fill="#A7601F" transform="translate(80,14)"/>
</svg>
